<?xml version="1.0" encoding="UTF-8" standalone="no"?>
<svg
   xmlns:dc="http://purl.org/dc/elements/1.1/"
   xmlns:cc="http://creativecommons.org/ns#"
   xmlns:rdf="http://www.w3.org/1999/02/22-rdf-syntax-ns#"
   xmlns:svg="http://www.w3.org/2000/svg"
   xmlns="http://www.w3.org/2000/svg"
   version="1.1"
   id="Layer_1"
   x="0px"
   y="0px"
   width="1000"
   height="1000"
   viewBox="0 0 1000 1000"
   enable-background="new 0 0 24 18"
   xml:space="preserve"><metadata
     id="metadata17"><rdf:RDF><cc:Work
         rdf:about=""><dc:format>image/svg+xml</dc:format><dc:type
           rdf:resource="http://purl.org/dc/dcmitype/StillImage" /><dc:title></dc:title></cc:Work></rdf:RDF></metadata><defs
     id="defs15"><defs
       id="defs3"><rect
         height="18"
         width="24"
         id="SVGID_1_"
         x="0"
         y="0" /></defs></defs><path
     id="path837"
     d="M 458.66218,948.10333 C 390.84609,941.63675 323.00445,919.03219 265.37147,883.69682 207.42389,848.17226 151.6019,792.35025 116.07447,734.40268 35.115743,602.34635 28.096636,437.29021 97.542384,298.56522 134.07743,225.57707 195.54972,158.65345 265.37147,115.84629 397.42518,34.887562 562.48394,27.868462 701.20869,97.314211 c 72.98839,36.535029 139.91177,98.007339 182.7163,167.829089 80.95896,132.05371 87.97784,297.11247 18.53495,435.83722 -36.53504,72.98839 -98.00758,139.91177 -167.82909,182.7163 -81.74155,50.11269 -181.55508,73.40786 -275.96867,64.40651 z M 552.77142,836.65115 C 676.5323,815.80907 776.86253,733.28732 820.13767,616.74766 c 14.05088,-37.83982 20.12855,-73.16229 20.12855,-116.97466 0,-34.21502 -1.58596,-48.25825 -9.05272,-80.03808 C 802.51861,297.5729 702.19862,197.25555 580.03659,168.56041 c -31.77743,-7.46414 -45.82305,-9.05509 -80.03543,-9.05509 -34.21501,0 -48.25824,1.58593 -80.03807,9.05509 -122.16202,28.69514 -222.47937,129.01249 -251.1745,251.17451 -7.46415,31.77983 -9.0551,45.82306 -9.0551,80.03808 0,34.21237 1.58595,48.25799 9.0551,80.03543 28.69513,122.16465 128.91262,222.38741 251.1745,251.18979 10.64368,2.50685 25.68424,5.38945 33.42215,6.40256 7.74029,1.02313 16.44759,2.17407 19.35074,2.59378 11.0247,1.56015 64.0305,-0.63949 80.03544,-3.34341 z M 433.15709,743.39902 v -48.37338 h 43.97601 43.97603 v 48.37338 48.37577 H 477.1331 433.15709 Z m 0.53701,-147.31954 c 1.12562,-25.76355 4.16684,-44.67187 9.27775,-57.44641 6.54325,-16.35275 30.4471,-31.96137 84.93899,-55.46127 38.65298,-16.66999 45.91503,-22.34107 55.54824,-43.38263 11.73323,-25.63049 7.47179,-79.53904 -7.38484,-93.39307 -6.87577,-6.41521 -10.19339,-7.81436 -26.9121,-11.35723 -18.06937,-3.82667 -70.00307,-4.31256 -87.86007,-0.81842 -20.05185,3.92127 -32.4272,10.98123 -37.98554,21.66314 -5.12596,9.85057 -7.87574,25.34407 -7.98085,44.94564 v 19.78813 h -43.80713 -43.80999 v -20.66818 c 0,-37.12342 6.41259,-70.85755 17.25573,-90.89891 9.89432,-18.29176 26.98641,-31.63147 51.19985,-39.96277 27.64882,-9.51304 80.72342,-14.99709 127.6745,-13.19376 88.93192,3.41484 125.33391,22.96003 140.54862,75.46179 6.92428,23.89883 8.633,42.0499 7.56639,80.41144 -2.14876,77.1065 -12.43148,92.65373 -84.79065,128.17329 -38.61213,18.95681 -48.93595,26.93264 -58.43609,45.14773 -3.40982,6.54062 -4.79607,12.29341 -5.40235,22.42802 l -0.81865,13.63379 h -44.90217 -44.90456 l 1.07426,-25.06793 z"
     style="fill:#000000;stroke-width:1.75904286" /></svg>