<?xml version="1.0" encoding="UTF-8" standalone="no"?>
<svg
   xmlns:dc="http://purl.org/dc/elements/1.1/"
   xmlns:cc="http://creativecommons.org/ns#"
   xmlns:rdf="http://www.w3.org/1999/02/22-rdf-syntax-ns#"
   xmlns:svg="http://www.w3.org/2000/svg"
   xmlns="http://www.w3.org/2000/svg"
   id="svg4"
   version="1.1"
   viewBox="0 0 45 45"
   height="45"
   width="45"
   data-name="Group 186">
  <metadata
     id="metadata10">
    <rdf:RDF>
      <cc:Work
         rdf:about="">
        <dc:format>image/svg+xml</dc:format>
        <dc:type
           rdf:resource="http://purl.org/dc/dcmitype/StillImage" />
        <dc:title></dc:title>
      </cc:Work>
    </rdf:RDF>
  </metadata>
  <defs
     id="defs8" />
  <path
     id="path817"
     d="M 8.2441406,9.4023438 C 5.8184716,11.064439 6.0289258,14.524942 8.6386719,15.904297 10.44437,16.858681 12.693616,16.020401 13.708984,14.013672 15.171412,10.115821 11.130466,7.7511261 8.2441406,9.4023438 Z M 27.183594,19.703125 c -1.284007,0.738853 -2.119482,1.678954 -3.082032,2.757813 v -1.466797 -1.46875 h -3.146484 -3.146484 v 10.582031 10.583984 h 3.242187 3.242188 l 0.0059,-5.386718 c 0.0032,-2.962659 0.08681,-6.02115 0.1875,-6.796876 0.353904,-2.726438 1.502571,-3.821678 4.019531,-3.830078 0.99591,-0.0033 1.391185,0.08638 1.890625,0.425782 1.443305,0.980833 1.696112,2.544213 1.707032,10.582031 l 0.0059,5.005859 h 3.242187 3.242188 l -0.0059,-6.054687 C 38.579785,24.662378 38.199807,22.65607 35.927734,20.613281 33.11639,18.794787 29.613409,18.390847 27.183594,19.703125 Z M 6.9414062,19.525391 v 10.582031 10.583984 h 3.3359378 3.33789 V 30.107422 19.525391 h -3.33789 z"
     style="fill:#000000;fill-opacity:1;stroke-width:0.19067797" />
</svg>
