<?xml version="1.0" encoding="UTF-8" standalone="no"?>
<svg
   xmlns:dc="http://purl.org/dc/elements/1.1/"
   xmlns:cc="http://creativecommons.org/ns#"
   xmlns:rdf="http://www.w3.org/1999/02/22-rdf-syntax-ns#"
   xmlns:svg="http://www.w3.org/2000/svg"
   xmlns="http://www.w3.org/2000/svg"
   id="svg2"
   viewBox="0 0 1000 1000"
   version="1.1"
   height="1000"
   width="1000"
   xml:space="preserve"><metadata
     id="metadata7"><rdf:RDF><cc:Work
         rdf:about=""><dc:format>image/svg+xml</dc:format><dc:type
           rdf:resource="http://purl.org/dc/dcmitype/StillImage" /><dc:title></dc:title></cc:Work></rdf:RDF></metadata><defs
     id="defs5" /><path
     clip-path="none"
     style="stroke-width:29.16666794"
     d="m 293.97595,381.44641 c 81.66668,0 145.83335,64.16667 145.83335,145.83334 0,81.66668 -64.16667,145.83332 -145.83335,145.83332 -81.66665,0 -145.83333,-64.16664 -145.83333,-145.83332 0,-81.66667 64.16668,-145.83334 145.83333,-145.83334 z m 323.75001,352.91668 c -2.91666,8.74995 -2.91666,17.49997 -2.91666,26.24997 0,64.16671 52.49999,116.66668 116.66668,116.66668 64.16662,0 116.66664,-52.49997 116.66664,-116.66668 0,-64.16668 -52.50002,-116.66664 -116.66664,-116.66664 -35,0 -64.16669,14.5833 -84.58334,37.91667 L 486.47596,597.27975 c -5.83334,17.50002 -14.58333,34.99999 -26.25001,52.50001 z M 848.14262,293.94641 c 0,-64.16667 -52.50002,-116.66668 -116.66664,-116.66668 -64.16669,0 -116.66668,52.50001 -116.66668,116.66668 0,8.75 0,17.49999 2.91666,26.25 L 457.3093,404.77975 c 11.66666,17.49997 20.41666,34.99999 29.16666,52.49996 l 160.41668,-84.5833 c 20.41665,23.33332 49.58334,37.91667 84.58334,37.91667 64.16662,0 116.66664,-52.50002 116.66664,-116.66667 z"
     id="path836" /></svg>