<?xml version="1.0" encoding="UTF-8" standalone="no"?>
<svg
   xmlns:dc="http://purl.org/dc/elements/1.1/"
   xmlns:cc="http://creativecommons.org/ns#"
   xmlns:rdf="http://www.w3.org/1999/02/22-rdf-syntax-ns#"
   xmlns:svg="http://www.w3.org/2000/svg"
   xmlns="http://www.w3.org/2000/svg"
   xml:space="preserve"
   width="1000"
   height="1000"
   version="1.1"
   viewBox="0 0 1000 1000"
   id="svg2"><metadata
     id="metadata7"><rdf:RDF><cc:Work
         rdf:about=""><dc:format>image/svg+xml</dc:format><dc:type
           rdf:resource="http://purl.org/dc/dcmitype/StillImage" /><dc:title></dc:title></cc:Work></rdf:RDF></metadata><defs
     id="defs5" /><path
     d="m 376.20807,818.76281 c 283.03803,0 437.80959,-234.48244 437.80959,-437.80955 0,-6.6601 -0.13573,-13.29014 -0.43433,-19.89024 30.04526,-21.7202 56.16044,-48.82549 76.75565,-79.68085 -27.57026,12.25516 -57.24046,20.50525 -88.36591,24.2253 31.77044,-19.05022 56.16058,-49.18553 67.66572,-85.11091 -29.73032,17.62518 -62.65558,30.43533 -97.711,37.35038 -28.08021,-29.91031 -68.05573,-48.61549 -112.32116,-48.61549 -84.97582,0 -153.88667,68.91075 -153.88667,153.85661 0,12.07511 1.35011,23.82026 3.99007,35.08532 -127.89131,-6.43502 -241.29248,-67.66567 -317.17822,-160.77163 -13.21521,22.74022 -20.83525,49.1555 -20.83525,77.34079 0,53.38556 27.16527,100.51606 68.47566,128.08636 -25.24524,-0.78001 -48.96047,-7.71012 -69.69073,-19.24521 -0.0222,0.6456 -0.0222,1.27501 -0.0222,1.96502 0,74.52077 53.04056,136.74143 123.45137,150.84155 -12.93016,3.52505 -26.53539,5.41507 -40.5755,5.41507 -9.90004,0 -19.54524,-0.97442 -28.92023,-2.77501 19.59012,61.14062 76.39569,105.63107 143.74647,106.87612 -52.66566,41.28041 -119.01133,65.86569 -191.11696,65.86569 -12.40525,0 -24.66036,-0.70559 -36.7055,-2.13005 68.10075,43.65051 148.96671,69.12073 235.87753,69.12073"
     style="fill:#000000;fill-opacity:1;fill-rule:nonzero;stroke:none;stroke-width:1.0771147"
     id="path3611" /></svg>