<?xml version="1.0" encoding="UTF-8" standalone="no"?>
<svg
   xmlns:dc="http://purl.org/dc/elements/1.1/"
   xmlns:cc="http://creativecommons.org/ns#"
   xmlns:rdf="http://www.w3.org/1999/02/22-rdf-syntax-ns#"
   xmlns:svg="http://www.w3.org/2000/svg"
   xmlns="http://www.w3.org/2000/svg"
   id="svg4"
   version="1.1"
   viewBox="0 0 50 50"
   height="50"
   width="50">
  <metadata
     id="metadata10">
    <rdf:RDF>
      <cc:Work
         rdf:about="">
        <dc:format>image/svg+xml</dc:format>
        <dc:type
           rdf:resource="http://purl.org/dc/dcmitype/StillImage" />
        <dc:title></dc:title>
      </cc:Work>
    </rdf:RDF>
  </metadata>
  <defs
     id="defs8" />
  <path
     id="path817"
     d="M 16.634083,39.858869 C 9.4015006,39.59357 7.7511479,39.231684 6.3106214,37.595161 4.7871626,35.86442 4.4478752,33.683635 4.4492164,25.630892 4.4506039,17.3005 4.818922,15.146197 6.5422977,13.388403 c 1.67534,-1.708798 3.5123003,-1.968748 15.1628473,-2.14571 8.194761,-0.12447 15.611523,0.117962 18.385067,0.600954 1.618818,0.281906 3.077013,1.156765 3.833563,2.29999 0.747087,1.128923 1.166595,3.476528 1.406383,7.870222 0.209659,3.841672 0.0019,9.497686 -0.448474,12.206455 -0.537321,3.232036 -2.148862,4.760242 -5.496011,5.211806 -2.083983,0.281151 -11.591336,0.660024 -15.522628,0.618584 -1.542898,-0.01627 -4.795931,-0.102589 -7.228962,-0.191835 z M 27.700676,27.896686 c 2.096688,-1.186845 3.814579,-2.209998 3.817536,-2.273673 0.0048,-0.102498 -10.304514,-6.033001 -10.802199,-6.214064 -0.116878,-0.04252 -0.197712,2.499122 -0.197712,6.216645 v 6.288575 l 1.685107,-0.929792 c 0.926809,-0.511385 3.400581,-1.900847 5.497268,-3.087691 z"
     style="fill:#000000;fill-opacity:1;stroke-width:0.21578993" />
</svg>
